<?xml version="1.0" encoding="UTF-8"?>
<svg version="1.1" viewBox="0 0 1600 352" width="150" height="50" xmlns="http://www.w3.org/2000/svg">
<path transform="translate(189 97.9)" d="m0 0c1.21-0.00336 2.41-0.00672 3.66-0.0102 3.3-0.00785 6.59-0.0112 9.89-0.0118 2.06-7.12e-4 4.12-0.00285 6.18-0.0055 7.19-0.00924 14.4-0.0133 21.6-0.0125 6.7 6.02e-4 13.4-0.00998 20.1-0.0257 5.76-0.0131 11.5-0.0184 17.3-0.0178 3.44 2.55e-4 6.87-0.00262 10.3-0.0132 3.83-0.0114 7.65-0.00695 11.5-8.95e-4 1.71-0.00843 1.71-0.00843 3.46-0.017 1.56 0.00629 1.56 0.00629 3.14 0.0127 0.905-5.45e-4 1.81-0.00109 2.74-0.00165 2.17 0.249 2.17 0.249 4.17 2.25 0.608 1.77 1.14 3.57 1.62 5.38 0.296 1.09 0.592 2.17 0.896 3.29 0.304 1.14 0.607 2.28 0.92 3.45 1.91 7.1 3.84 14 6.56 20.9 2.42 6.25 4.39 12.2 5.56 18.8 0.513 2.53 1.43 4.79 2.44 7.16v3h4c0.11-0.846 0.219-1.69 0.332-2.56 0.809-5.79 1.67-11.1 3.95-16.5 1.12-3.04 1.58-6.18 2.09-9.37 0.625-2.59 0.625-2.59 2.06-5.94 1.56-3.65 2.59-7.18 3.56-11 4.04-15.7 4.04-15.7 7-18.6 1.89-0.261 1.89-0.261 4.22-0.275 0.871-0.00953 1.74-0.0191 2.64-0.0289 0.943 9.11e-4 1.89 0.00182 2.86 0.00276 1.45-0.00643 1.45-0.00643 2.93-0.013 2.05-0.00575 4.09-0.00624 6.14-0.00191 3.14 0.00316 6.27-0.0203 9.41-0.0457 1.99-0.00227 3.97-0.00298 5.96-0.00195 0.941-0.00921 1.88-0.0184 2.85-0.0279 0.874 0.00623 1.75 0.0125 2.65 0.0189 0.769-6.29e-4 1.54-0.00126 2.33-0.00191 2.56 0.474 3.42 1.36 5.02 3.37 0.844 2.16 0.844 2.16 1.5 4.64 0.248 0.906 0.495 1.81 0.75 2.75 0.248 0.945 0.495 1.89 0.75 2.86 1.64 6.15 3.38 11.9 6 17.8 0.534 1.55 1.04 3.11 1.5 4.69 0.369 1.26 0.369 1.26 0.746 2.54 1.11 4.07 2.07 8.18 3.01 12.3 0.579 2.62 0.579 2.62 2.75 4.47 0.633 2.16 0.633 2.16 1.12 4.62 0.168 0.817 0.335 1.63 0.508 2.48 0.121 0.626 0.242 1.25 0.367 1.9h1c2.19-4.89 2.75-9.66 3.44-14.9 0.562-3.06 0.562-3.06 1.55-4.98 1.08-2.22 1.46-4.02 1.79-6.45l0.363-2.49c0.117-0.85 0.235-1.7 0.355-2.58 0.717-5.17 1.47-9.72 3.5-14.6 0.654-3.21 1.24-6.42 1.77-9.65 0.46-2.54 0.907-4.82 2.26-7.04 3.18-2.12 6.64-1.72 10.3-1.68 0.854-0.00365 1.71-0.0073 2.59-0.0111 2.83-0.00811 5.65 0.00551 8.48 0.0201 1.96 5.18e-4 3.92 1.2e-6 5.88-0.00151 4.11 8.98e-5 8.22 0.0105 12.3 0.0286 5.28 0.0227 10.6 0.0232 15.8 0.0165 4.05-0.00334 8.1 0.00329 12.2 0.0131 1.95 0.00385 3.89 5e-3 5.84 0.00341 2.72-3.7e-4 5.43 0.0122 8.15 0.0285 1.21-0.00372 1.21-0.00372 2.45-0.00751 3.84 0.0367 5.66 0.104 8.92 2.28 0.354 2.64 0.354 2.64 0.323 6.05-0.00644 1.94-0.00644 1.94-0.013 3.91-0.0201 1.44-0.0404 2.88-0.061 4.31-0.0107 1.51-0.0201 3.02-0.0282 4.52-0.0259 4.1-0.0705 8.2-0.118 12.3-0.0468 4.28-0.0766 8.57-0.108 12.8-0.0624 8.11-0.14 16.2-0.223 24.3-0.094 9.24-0.171 18.5-0.246 27.7-0.156 19-0.333 38-0.524 57-3.84 0.164-7.68 0.327-11.5 0.49-1.62 0.0694-1.62 0.0694-3.27 0.14-7.7 0.324-15.4 0.553-23.1 0.558l-3.23 0.0371-3.07 0.00586c-0.884 0.00411-1.77 0.00822-2.68 0.0125-2.14-0.243-2.14-0.243-4.14-2.24-0.246-1.96-0.246-1.96-0.241-4.42-0.00412-1.39-0.00412-1.39-0.00833-2.81 0.00719-1.02 0.0144-2.04 0.0218-3.1-2.92e-4 -1.07-5.84e-4 -2.15-8.85e-4 -3.25 0.0014-3.56 0.017-7.12 0.0326-10.7 0.00373-2.46 0.00658-4.93 0.00858-7.39 0.00765-6.49 0.0273-13 0.0494-19.5 0.0204-6.62 0.0296-13.2 0.0397-19.9 0.0215-13 0.0552-26 0.0977-39h-2c-0.307 1.77-0.307 1.77-0.621 3.58-0.272 1.56-0.544 3.11-0.816 4.67-0.202 1.17-0.202 1.17-0.408 2.36-0.198 1.13-0.198 1.13-0.4 2.29-0.12 0.691-0.241 1.38-0.365 2.09-0.392 2.03-0.871 4.01-1.39 6.01-2.19 8.66-4.34 17.3-6.29 26-0.504 2.1-1.07 4.19-1.67 6.27-1.4 4.99-2.46 10-3.54 15.1-0.714 3.29-1.46 6.47-2.53 9.67-1.56 4.71-2.29 9.58-3.19 14.5-0.661 2.93-1.44 4.85-2.78 7.46-0.431 1.9-0.804 3.82-1.12 5.75-0.168 0.985-0.335 1.97-0.508 2.98-0.121 0.748-0.242 1.5-0.367 2.27-6.63 0.762-13.2 1.17-19.8 1.2-0.889 0.0057-1.78 0.0114-2.69 0.0173-1.86 0.00936-3.72 0.0159-5.57 0.0198-2.85 0.00983-5.7 0.041-8.54 0.0723-1.81 0.00652-3.63 0.0118-5.44 0.0156-0.85 0.0123-1.7 0.0247-2.58 0.0374-5.9-0.0225-5.9-0.0225-8.03-1.71-1.87-2.36-2.24-4.66-2.87-7.59-0.864-4.11-0.864-4.11-2.4-7.99-1.01-2.02-1.69-3.93-2.33-6.1-0.234-0.782-0.468-1.56-0.708-2.37-0.246-0.838-0.491-1.68-0.745-2.54-0.257-0.87-0.515-1.74-0.78-2.64-0.545-1.85-1.09-3.7-1.63-5.55-0.566-1.93-1.13-3.87-1.71-5.8-0.843-2.86-1.68-5.71-2.51-8.57-0.263-0.889-0.525-1.78-0.796-2.7-0.24-0.833-0.48-1.67-0.728-2.52-0.213-0.732-0.426-1.46-0.646-2.22-0.456-2.06-0.456-2.06-0.456-6.06-3.73 3.26-4.01 7-4.81 11.7-1.47 7.9-3.17 15.7-5.12 23.5-0.229 0.923-0.457 1.85-0.693 2.8-2.21 8.76-4.81 17.3-7.37 26-16.2 0.33-32.3 0.66-49 1-0.33-0.99-0.66-1.98-1-3-0.99-0.33-1.98-0.66-3-1-0.982-2.51-1.78-4.91-2.5-7.5-0.405-1.39-0.812-2.77-1.22-4.16-0.206-0.712-0.412-1.42-0.625-2.16-0.665-2.21-1.39-4.4-2.13-6.59-1.63-4.84-3.02-9.74-4.4-14.7-3.61-12.8-7.5-25.4-11.8-38-1.95-5.71-3.61-11.5-5.24-17.3-1.36-4.73-2.83-9.42-4.32-14.1-0.734-2.55-0.734-2.55-0.734-4.55-4.03 0.12-8.07 0.245-12.1 0.372-1.37 0.0427-2.73 0.0844-4.1 0.125-7.02 0.209-14 0.467-21 0.913-1.02 0.0645-2.03 0.129-3.08 0.196-2.63 0.388-4.4 1.05-6.68 2.39-0.242 5.32-0.242 5.32 2 10 0.606 0.293 1.21 0.585 1.84 0.887 4.16 2.14 7.21 5.82 10.5 9.11 0.765 0.768 1.53 1.54 2.32 2.33 5.14 5.24 9.55 10.4 13.4 16.7 0.722 1.03 1.44 2.06 2.19 3.12 7.73 12.3 11.5 25.4 9.81 39.9-1.82 6.7-4.33 12.8-10 17-1.32 0.368-2.66 0.712-4 1-0.33 0.99-0.66 1.98-1 3-9.25 4.77-18.3 5.72-28.6 5.6-1.4 0.00187-2.8 0.00592-4.19 0.0119-3.75 0.00986-7.49-0.011-11.2-0.0385-3.94-0.024-7.87-0.0209-11.8-0.0213-6.59-0.00461-13.2-0.0281-19.8-0.0645-7.62-0.0419-15.2-0.0593-22.9-0.0626-8.14-0.00359-16.3-0.0224-24.4-0.0471-2.34-0.00623-4.68-0.00987-7.02-0.013-3.67-0.00589-7.33-0.0222-11-0.0466-1.99-0.011-3.98-0.0123-5.97-0.0133-1.77-0.015-1.77-0.015-3.57-0.0302-1.03-0.00465-2.05-0.0093-3.11-0.0141-2.42-0.26-2.42-0.26-4.42-2.26-0.2-2.99-0.28-5.88-0.266-8.88-0.00191-0.88-0.00383-1.76-0.0058-2.67-0.00136-1.86 0.00234-3.73 0.0107-5.59 0.0107-2.86 1.06e-4 -5.71-0.0127-8.57 0.00132-1.81 0.00388-3.61 0.00781-5.42-0.00405-0.858-0.0081-1.72-0.0123-2.6 0.048-6.04 0.048-6.04 2.28-8.27 2.98-0.208 5.86-0.29 8.84-0.287 0.916-0.00683 1.83-0.0137 2.77-0.0207 1.99-0.0136 3.99-0.0227 5.98-0.0277 3.16-0.00827 6.31-0.0288 9.47-0.0525 6.71-0.0483 13.4-0.0812 20.1-0.112 7.76-0.0357 15.5-0.0777 23.3-0.136 3.11-0.02 6.21-0.0284 9.32-0.0363 1.91-0.013 3.83-0.0265 5.74-0.0406 0.86 9.82e-4 1.72 0.00196 2.61 0.00298 5-0.0513 9.14-0.688 13.9-2.29-1.51-9.13-4.99-13.2-11.9-19.2-5.41-4.73-10.9-9.97-15.1-15.8v-2h-2c-2-3-2-3-2-6h-2c-8.22-15.3-8.22-15.3-9-24-0.0812-0.859-0.162-1.72-0.246-2.6-0.455-9.56 2.21-19.7 7.62-27.6 9.6-10.6 20.2-11.9 33.7-11.9zm232 23.1 1 3zm-88 10 1 2zm83 13 1 2zm-225 59 1 3z" fill="#FCFDFF"/>
<path transform="translate(950 97.8)" d="m0 0c0.933-0.00241 1.87-0.00483 2.83-0.00732 3.1-0.0056 6.21 3e-3 9.31 0.0116 2.23-0.00107 4.47-0.00301 6.7-0.00575 6.05-0.00484 12.1 0.00279 18.2 0.013 6.33 0.00879 12.7 0.00702 19 0.00664 10.6 9.36e-4 21.2 0.00955 31.9 0.0233 10.9 0.0141 21.9 0.0212 32.8 0.0205 1.01-5.99e-5 1.01-5.99e-5 2.04-1.21e-4 1.01-6.05e-5 1.01-6.05e-5 2.04-1.22e-4 11.8-6.54e-4 23.6 0.00449 35.5 0.0128 5.04 0.00354 10.1 0.00536 15.1 0.00589 5.92 1e-3 11.8 0.00708 17.8 0.0172 2.18 0.00293 4.36 0.00415 6.53 0.00357 2.96-4.88e-4 5.92 0.00514 8.88 0.0124 0.871-0.00155 1.74-0.0031 2.64-0.00469 5.93 0.0242 5.93 0.0242 8.16 1.14 1.2 3.61 1.14 6.91 1.13 10.7 0.00144 1.13 0.00144 1.13 0.0029 2.28 6.8e-4 1.6-0.00116 3.19-0.00534 4.79-0.00531 2.42-6.96e-5 4.84 0.00635 7.26-6.62e-4 1.56-0.00194 3.11-0.00391 4.67 0.00202 0.715 0.00405 1.43 0.00613 2.17-0.00315 0.69-0.0063 1.38-0.00955 2.09-0.00119 0.892-0.00119 0.892-0.00241 1.8-0.193 3.45-0.677 6.85-1.13 10.3-1.04 0.0103-2.08 0.0206-3.14 0.0312-9.76 0.0976-19.5 0.2-29.3 0.308-5.02 0.0553-10 0.109-15 0.158-4.84 0.0476-9.67 0.0999-14.5 0.156-1.85 0.0205-3.7 0.0392-5.55 0.0561-2.58 0.024-5.16 0.054-7.74 0.0856-0.773 0.00576-1.55 0.0115-2.34 0.0174-3.49-0.265-3.49-0.265-6.39 1.19 0.0909 2.7 0.237 5.37 0.438 8.06 0.0522 0.759 0.104 1.52 0.158 2.3 0.13 1.88 0.267 3.76 0.404 5.64 0.727-0.164 1.45-0.328 2.2-0.498 2.62-0.47 4.9-0.596 7.56-0.54 1.37 0.0253 1.37 0.0253 2.77 0.0511 0.974 0.0239 1.95 0.0478 2.95 0.0724 1.01 0.0212 2.02 0.0425 3.06 0.0644 2.13 0.0462 4.25 0.0951 6.38 0.147 3.27 0.0781 6.53 0.145 9.8 0.211 2.07 0.0462 4.13 0.0931 6.2 0.141 1.47 0.0298 1.47 0.0298 2.97 0.0602 0.905 0.0232 1.81 0.0463 2.74 0.0702 0.798 0.0186 1.6 0.0371 2.42 0.0562 1.95 0.165 1.95 0.165 3.95 1.16v26c-3.81 0.0606-7.63 0.121-11.6 0.184-3.68 0.0617-7.35 0.125-11 0.189-2.56 0.0434-5.13 0.0851-7.69 0.125-3.68 0.0575-7.35 0.121-11 0.186-1.73 0.0251-1.73 0.0251-3.5 0.0506-1.06 0.0199-2.12 0.0399-3.22 0.0604-1.41 0.0233-1.41 0.0233-2.85 0.0471-2.12-0.0763-2.12-0.0763-3.13 1.16-0.0726 2.19-0.0837 4.38-0.0625 6.56 0.00902 1.2 0.018 2.4 0.0273 3.63 0.0116 0.927 0.0232 1.85 0.0352 2.81 21.3 1.05 42.6 1.09 63.9 1.06 0.715-8.56e-4 1.43-0.00171 2.17-0.00259 8.97-0.0115 17.9-0.0318 26.9-0.0599v2h2c1.47 2.93 1.2 5.6 1.28 8.87 0.0184 0.678 0.0368 1.36 0.0558 2.05 0.0588 2.17 0.112 4.34 0.163 6.51 0.0677 2.85 0.141 5.71 0.219 8.56 0.0303 1.27 0.0606 2.54 0.0918 3.85 0.0545 3.18 0.0545 3.18 1.19 6.15 0.347 6.48 0.347 6.48-2 10-2.31 0.399-2.31 0.399-5.23 0.432-1.1 0.0198-2.19 0.0396-3.32 0.06-1.79 0.00958-1.79 0.00958-3.62 0.0194-1.24 0.018-2.47 0.0359-3.75 0.0544-3.31 0.0451-6.62 0.0773-9.93 0.103-3.29 0.0293-6.58 0.0764-9.86 0.121-7.43 0.0964-14.9 0.16-22.3 0.209-0.891 0.00655-1.78 0.0131-2.7 0.0198-16.7 0.11-33.5-0.223-50.2-0.483-3.97-0.0614-7.94-0.121-11.9-0.181-7.73-0.117-15.5-0.236-23.2-0.355-1.18-2.36-1.14-3.79-1.16-6.42-0.0147-1.39-0.0147-1.39-0.0297-2.81-0.00576-1.02-0.0115-2.04-0.0174-3.1-0.0099-1.07-0.0198-2.15-0.03-3.25-0.0317-3.56-0.0564-7.12-0.0811-10.7-0.0206-2.46-0.0416-4.93-0.063-7.39-0.0553-6.49-0.105-13-0.153-19.5-0.0502-6.62-0.106-13.2-0.161-19.9-0.108-13-0.209-26-0.307-39-5.46 0.0946-10.9 0.201-16.4 0.317-1.85 0.0379-3.7 0.0728-5.55 0.104-17.4-0.893-17.4-0.893-32.9 4.15-0.384 0.471-0.768 0.943-1.16 1.43 2.22 5.25 5.93 9.24 10.3 12.8 0.887 0.743 1.77 1.49 2.69 2.25v2c0.639 0.268 1.28 0.536 1.94 0.812 2.06 1.19 2.06 1.19 3.06 4.19h2c3.21 3.49 6.08 7.26 9 11 0.756 0.959 0.756 0.959 1.53 1.94 9.46 12.6 15.2 28.7 13.2 44.4-0.955 5.03-2.52 8.53-5.69 12.6-0.536 0.825-1.07 1.65-1.62 2.5-7.6 8-18.1 11.6-29 11.9-2.53 0.00862-5.05 8.99e-4 -7.58-0.0202-1.4-8.48e-4 -2.8-3.68e-4 -4.2 0.00133-3.77 8.55e-4 -7.54-0.0167-11.3-0.0377-3.95-0.0189-7.91-0.0205-11.9-0.0241-7.47-0.0093-14.9-0.0339-22.4-0.064-8.51-0.0336-17-0.05-25.5-0.0651-17.5-0.0313-35-0.084-52.5-0.151-1.64-3.27-1.24-6.91-1.32-10.5-0.0208-0.841-0.0416-1.68-0.063-2.55-0.0655-2.69-0.124-5.38-0.183-8.07-0.0432-1.82-0.0868-3.64-0.131-5.46-0.107-4.47-0.208-8.94-0.307-13.4-1.7-0.0561-1.7-0.0561-3.43-0.113-1.48-0.0656-2.96-0.132-4.45-0.199-0.746-0.0226-1.49-0.0451-2.26-0.0684-1.96-0.0973-3.92-0.35-5.86-0.619-2.41-3.62-2.29-6.27-2.27-10.4-0.00191-0.723-0.00383-1.45-0.0058-2.19-0.00136-1.53 0.00232-3.05 0.0107-4.58 0.0107-2.34 8.93e-5 -4.68-0.0127-7.02 0.00132-1.48 0.00388-2.97 0.00781-4.45-0.00405-0.702-0.0081-1.4-0.0123-2.13 0.048-4.95 0.048-4.95 2.28-7.18 2.74-0.319 2.74-0.319 6.25-0.414 1.3-0.0388 2.6-0.0777 3.94-0.118 1.42-0.0316 2.83-0.0627 4.25-0.0933 1.44-0.0372 2.88-0.0748 4.32-0.113 9.54-0.238 19.1-0.36 28.6-0.387 1.15-0.00467 2.29-0.00935 3.47-0.0142 1.05 0.00209 2.1 0.00419 3.18 0.00635 0.917 0.00113 1.83 0.00226 2.78 0.00342 2.2 0.129 2.2 0.129 4.2 1.13v34c7.28 0.023 14.6 0.0429 21.8 0.0549 2.47 0.00502 4.95 0.0118 7.42 0.0205 3.56 0.0122 7.12 0.0178 10.7 0.0222 1.65 0.00774 1.65 0.00774 3.34 0.0156 5.35 3.88e-4 10.4-0.165 15.7-1.11 0.279-4.84 0.253-7.34-3-11v-2h-2c-2.53-2.33-4.77-4.71-6.88-7.44-2.11-2.72-2.11-2.72-5.19-5-10.7-8.98-21.1-23.7-23.9-37.6-0.24-3.06-0.231-6.12-0.25-9.19-0.0206-0.813-0.0412-1.63-0.0625-2.46-0.038-5.97 1.12-10.8 3.31-16.3 0.392-1.03 0.784-2.06 1.19-3.12 4.59-7.29 12.5-13 20.9-15 4.89-1.03 9.59-1.19 14.6-1.16zm3.31 105 1 2z" fill="#FCFDFF"/>
<path transform="translate(1191 97.7)" d="m0 0c0.945-0.016 1.89-0.032 2.86-0.0484 1.54-0.00804 1.54-0.00804 3.1-0.0163 1.05-0.00903 2.1-0.0181 3.18-0.0274 2.23-0.0145 4.45-0.0234 6.68-0.0271 3.4-0.0119 6.81-0.061 10.2-0.112 2.16-0.00947 4.32-0.0167 6.49-0.0215 1.02-0.0195 2.04-0.0391 3.08-0.0592 7.1 0.0453 7.1 0.0453 10.9 3.02 0.961 1.29 0.961 1.29 1.94 2.6 0.657 0.706 1.31 1.41 1.99 2.14 5.42 6.07 10.4 12.4 15.3 18.9 0.78 1.05 1.56 2.11 2.36 3.19 0.714 0.975 1.43 1.95 2.16 2.95 2.23 2.83 4.65 5.26 7.21 7.8 1.69 1.96 3.35 3.94 5 5.94 0.825 0.999 1.65 2 2.5 3.03 0.825 1 1.65 2 2.5 3.04 0.885 1.06 1.77 2.13 2.66 3.19 1.16 1.39 1.16 1.39 2.34 2.81-0.00444-0.697-0.00888-1.39-0.0135-2.11-0.04-6.56-0.0705-13.1-0.0902-19.7-0.0104-3.37-0.0246-6.75-0.0473-10.1-0.0242-3.88-0.0356-7.75-0.0444-11.6-0.0103-1.21-0.0206-2.43-0.0313-3.68-1.51e-4 -1.12-3.02e-4 -2.24-4.58e-4 -3.4-0.00444-0.99-0.00888-1.98-0.0135-3 0.241-2.37 0.241-2.37 2.24-4.37 2.01-0.261 2.01-0.261 4.51-0.275 0.934-0.00953 1.87-0.0191 2.83-0.0289 1.52 0.00137 1.52 0.00137 3.07 0.00276 1.55-0.00643 1.55-0.00643 3.14-0.013 2.19-0.00575 4.38-0.00624 6.58-0.00191 3.36 0.00316 6.73-0.0203 10.1-0.0457 2.13-0.00227 4.25-0.00298 6.38-0.00195 1.01-0.00921 2.02-0.0184 3.07-0.0279 0.934 0.00623 1.87 0.0125 2.83 0.0189 0.824-6.29e-4 1.65-0.00126 2.5-0.00191 0.664 0.123 1.33 0.247 2.01 0.374 2.36 3.54 2.25 4.98 2.24 9.17 0.00412 1.94 0.00412 1.94 0.00833 3.91-0.00708 1.43-0.0143 2.87-0.0218 4.3-5.64e-4 1.51-2.48e-4 3.02 8.85e-4 4.52 5.75e-4 4.1-0.0112 8.19-0.0251 12.3-0.0125 4.28-0.0137 8.56-0.0161 12.8-0.00622 8.11-0.0226 16.2-0.0427 24.3-0.0223 9.23-0.0333 18.5-0.0434 27.7-0.0209 19-0.0561 38-0.101 57-6.89 0.245-13.8 0.457-20.7 0.647-2.34 0.0684-4.69 0.144-7.03 0.228-3.37 0.119-6.74 0.211-10.1 0.297-1.57 0.0638-1.57 0.0638-3.17 0.129-7.3 0.151-7.3 0.151-11.1-2.18-1.93-2.14-3.79-4.27-5.54-6.56-3.14-4.02-6.37-7.94-9.69-11.8-4.36-5.11-8.56-10.3-12.7-15.6-3.61-4.63-7.3-9.18-11-13.7-2.01-2.45-4-4.92-5.97-7.4-1.09 4.37-1.08 8.59-1 13.1 0.136 7.45 0.136 7.45-0.498 9.74-0.701 3.08-0.613 6-0.6 9.16 0.00212 0.99 0.00212 0.99 0.00429 2 0.00558 2.1 0.0181 4.2 0.0309 6.3 0.00502 1.43 0.00958 2.85 0.0137 4.28 0.011 3.49 0.0282 6.98 0.0488 10.5-2.41 1.21-3.93 1.13-6.62 1.13-0.958 0.00315-1.92 0.0063-2.9 0.00955-1.55-0.00304-1.55-0.00304-3.14-0.00613-1.59 0.00144-1.59 0.00144-3.21 0.0029-2.24 6.81e-4 -4.49-0.00117-6.73-0.00534-3.45-0.00535-6.9-5.05e-5 -10.3 0.00635-2.18-6.61e-4 -4.35-0.00194-6.53-0.00391-1.56 0.00304-1.56 0.00304-3.15 0.00613-0.954-0.00315-1.91-0.0063-2.89-0.00955-0.844-7.96e-4 -1.69-0.00159-2.56-0.00241-1.93-0.127-1.93-0.127-2.93-1.13-1.18-8.46-1.15-17-1.12-25.6-0.0058-1.74-0.0058-1.74-0.0117-3.52 0.00129-1.11 0.00258-2.22 0.00391-3.36 0.00113-0.997 0.00226-1.99 0.00342-3.02 0.129-2.54 0.129-2.54 1.13-5.54-0.33-0.33-0.66-0.66-1-1-0.0878-1.44-0.106-2.88-0.0957-4.32 0.00415-0.932 0.0083-1.86 0.0126-2.83 0.0098-1.03 0.0196-2.06 0.0297-3.12 0.00639-1.08 0.0128-2.16 0.0194-3.27 0.0229-3.59 0.0535-7.18 0.0849-10.8 0.0192-2.48 0.0383-4.96 0.0572-7.45 0.0411-5.21 0.0863-10.4 0.134-15.6 0.049-5.36 0.0905-10.7 0.125-16.1 0.0418-6.46 0.0932-12.9 0.152-19.4 0.0211-2.47 0.039-4.94 0.0537-7.41 0.0215-3.45 0.0554-6.89 0.0925-10.3 0.00373-1.03 0.00746-2.06 0.0113-3.12 0.0126-0.935 0.0252-1.87 0.0382-2.83 0.00683-0.815 0.0137-1.63 0.0207-2.47 0.566-4.23 3.18-4.24 6.82-4.28zm-6.55 94.3v17h1v-17h-1z" fill="#FCFDFF"/>
<path transform="translate(1349 97.7)" d="m0 0c1.33 0.00843 1.33 0.00843 2.69 0.017 0.934-0.0019 1.87-0.0038 2.83-0.00575 3.1-0.00372 6.21 0.00702 9.31 0.0182 2.16 0.00119 4.32 0.00164 6.48 0.00139 4.54 0.00157 9.09 0.00987 13.6 0.0233 5.79 0.0169 11.6 0.0208 17.4 0.0201 4.47 2.74e-4 8.94 0.00579 13.4 0.013 2.13 0.00316 4.26 0.00515 6.4 0.00589 31.8 0.0233 31.8 0.0233 42.4 3.42 1.07 0.326 1.07 0.326 2.16 0.659 5.39 1.72 10.3 3.93 15 7.09v2c1.03 0.0561 1.03 0.0561 2.09 0.113 4.22 1.28 6.47 3.94 9.47 7.07 0.564 0.565 1.13 1.13 1.71 1.71 3.39 3.46 6.17 6.96 8.73 11.1 0.523 0.811 1.05 1.62 1.59 2.46 4.21 7.57 6.87 16 7.27 24.7 0.027 1.98 0.027 1.98 1.14 3.89 0.307 5.01 0.296 10 0.312 15.1 0.00393 1.09 0.00393 1.09 0.00793 2.21 0.00544 14-0.898 27.4-8.32 39.7-0.588 1.14-0.588 1.14-1.19 2.29-2.43 4.65-4.87 8.16-8.81 11.7-1.18 1.21-1.18 1.21-2.38 2.44-0.866 0.846-1.73 1.69-2.62 2.56-0.49 0.486-0.98 0.972-1.48 1.47-13.8 12.9-35.2 14.7-53.2 14.6-1.52 2.19e-4 -1.52 2.19e-4 -3.08 4.43e-4 -3.32-6.91e-4 -6.64-0.00844-9.97-0.0163-2.32-0.00187-4.63-0.00329-6.95-0.00429-6.07-0.0038-12.1-0.0136-18.2-0.0247-6.21-0.0103-12.4-0.0148-18.6-0.0198-12.2-0.0107-24.3-0.0277-36.5-0.0488-1.37-2.74-1.13-4.93-1.13-8-0.00426-1.28-0.00853-2.56-0.0129-3.88 3.5e-4 -1.43 8.11e-4 -2.85 0.00137-4.28-0.00299-1.49-0.00639-2.99-0.0102-4.48-0.00885-4.07-0.0112-8.13-0.0118-12.2-9.48e-4 -3.39-0.00462-6.78-0.00817-10.2-0.00815-7.99-0.0106-16-0.00987-24 6.01e-4 -8.26-0.00996-16.5-0.0257-24.8-0.0131-7.08-0.0184-14.2-0.0178-21.2 2.56e-4 -4.23-0.00263-8.47-0.0132-12.7-0.00965-3.98-0.00978-7.96-0.00248-11.9 0.00105-1.46-0.00134-2.93-0.00736-4.39-0.00766-1.99-0.0019-3.98 0.00463-5.97-5.45e-4 -1.12-0.00109-2.23-0.00165-3.38 0.519-5.46 3.89-4.85 8.56-4.87zm42.7 38.3c-1.48 2.95-1.14 5.94-1.13 9.17-0.00175 0.738-0.0035 1.48-0.00531 2.24-0.00441 2.45-0.00148 4.89 0.00189 7.34-6.73e-4 1.7-0.00164 3.39-0.0029 5.09-0.00148 3.56 6.74e-4 7.12 0.00534 10.7 0.0057 4.57 0.00242 9.13-0.00357 13.7-0.00361 3.5-0.00247 7.01 1.28e-4 10.5 6.68e-4 1.68-1.56e-4 3.37-0.00248 5.05-0.00253 2.35 0.00132 4.7 0.0069 7.05-0.00202 0.7-0.00405 1.4-0.00613 2.12-0.0285 3.65-0.0285 3.65 1.14 7.05 5.41 0.0746 10.8 0.129 16.2 0.165 1.84 0.015 3.67 0.0354 5.51 0.0615 2.65 0.0367 5.3 0.0535 7.95 0.0667 0.812 0.0155 1.62 0.031 2.46 0.0469 6.62 0.00192 12-1.26 17.5-5.25 9.3-9.35 11.5-19 11.5-31.8-0.0058-1.14-0.0058-1.14-0.0117-2.3 0.00387-0.764 0.00773-1.53 0.0117-2.31-0.0202-11.8-2.34-22.4-10.1-31.6h-2v-2c-1.23-0.654-2.46-1.3-3.69-1.94-1.03-0.539-1.03-0.539-2.07-1.09-5.06-2.2-10.2-2.11-15.6-2.07-1.19 0.00212-1.19 0.00212-2.4 0.00429-2.52 0.00557-5.03 0.0181-7.55 0.0309-1.71 0.00502-3.42 0.00958-5.13 0.0137-4.18 0.011-8.37 0.0282-12.6 0.0488zm59 22 1 2z" fill="#FCFDFF"/>
<path transform="translate(535 97.7)" d="m0 0c1.09-0.00564 2.18-0.0113 3.31-0.0171 1.81 0.00607 1.81 0.00607 3.65 0.0123 1.26-0.0035 2.53-0.00701 3.83-0.0106 3.47-0.00914 6.94-0.00557 10.4 7.58e-4 3.63 0.00505 7.26 3.7e-4 10.9-0.00277 6.1-0.00364 12.2 0.00116 18.3 0.0107 7.05 0.0109 14.1 0.00736 21.2-0.00365 6.05-0.00907 12.1-0.0104 18.1-0.00512 3.61 0.00312 7.23 0.00353 10.8-0.00307 4.03-0.00684 8.06 0.00264 12.1 0.0138 1.2-0.00405 2.4-0.0081 3.64-0.0123 1.1 0.00564 2.19 0.0113 3.32 0.0171 1.43 0.00113 1.43 0.00113 2.89 0.00229 2.39 0.252 2.39 0.252 5.39 2.25 0.367 1.9 0.367 1.9 0.356 4.25 0.0045 1.32 0.0045 1.32 0.00909 2.66-0.0185 1.42-0.0185 1.42-0.0374 2.88-0.00187 0.971-0.00375 1.94-0.00568 2.94-0.00673 2.06-0.0207 4.11-0.0412 6.17-0.0312 3.16-0.041 6.32-0.0469 9.47-0.00917 1.99-0.0195 3.99-0.0312 5.98-0.00425 0.951-0.0085 1.9-0.0129 2.88-0.00961 0.874-0.0192 1.75-0.0291 2.65-0.0102 1.16-0.0102 1.16-0.0207 2.34-0.14 1.78-0.14 1.78-1.14 2.78-2.52 0.12-5.01 0.175-7.53 0.189-0.789 0.00829-1.58 0.0166-2.39 0.0251-1.72 0.0174-3.44 0.0326-5.15 0.0458-2.71 0.021-5.43 0.048-8.14 0.0767-6.74 0.07-13.5 0.129-20.2 0.189-5.69 0.0508-11.4 0.106-17.1 0.166-2.68 0.0267-5.36 0.0474-8.05 0.068-1.63 0.0166-3.27 0.0335-4.9 0.0507-1.13 0.00628-1.13 0.00628-2.28 0.0127-3.42-0.261-3.42-0.261-6.25 1.18-0.0727 2.35-0.0837 4.71-0.0625 7.06 0.00902 1.29 0.018 2.58 0.0273 3.91 0.0116 0.999 0.0232 2 0.0352 3.03 6.65 0.791 13.1 1.11 19.8 0.992 1.82-0.0175 3.64-0.0344 5.47-0.0508 2.83-0.0311 5.67-0.067 8.5-0.113 2.76-0.0422 5.52-0.0657 8.28-0.0864 1.27-0.0279 1.27-0.0279 2.58-0.0564 2.39-0.0105 2.39-0.0105 6.33 0.314l3 3c-0.33 8.25-0.66 16.5-1 25-17.5 0.33-35 0.66-53 1-0.33 20.8-0.66 41.6-1 63-12.1 0.0619-12.1 0.0619-24.4 0.125-2.54 0.0182-5.08 0.0364-7.7 0.0552-2 0.00584-4.01 0.0109-6.01 0.0151-1.05 0.0102-2.1 0.0205-3.18 0.031-1.49 3.63e-4 -1.49 3.63e-4 -3.01 7.32e-4 -1.3 0.00666-1.3 0.00666-2.62 0.0135-2.1-0.241-2.1-0.241-4.1-2.24-0.252-2.61-0.252-2.61-0.254-6-0.00564-1.28-0.0113-2.56-0.0171-3.88 0.00389-1.43 0.00799-2.85 0.0123-4.28-0.00271-1.49-0.00627-2.99-0.0106-4.48-0.00914-4.07-0.00557-8.13 7.58e-4 -12.2 0.00505-4.25 3.71e-4 -8.5-0.00277-12.7-0.00364-7.14 0.00117-14.3 0.0107-21.4 0.0109-8.26 0.00736-16.5-0.00365-24.8-0.00907-7.08-0.0104-14.2-0.00512-21.2 0.00312-4.23 0.00352-8.47-0.00307-12.7-0.00576-3.98-0.0018-7.96 0.00979-11.9 0.00265-1.46 0.00187-2.93-0.00253-4.39-0.00543-1.99 0.00258-3.98 0.0114-5.97 7.54e-4 -1.12 0.00151-2.23 0.00229-3.38 0.478-4.97 3.08-4.86 7.41-4.87z" fill="#FCFDFF"/>
<path transform="translate(691 97.9)" d="m0 0c1.38-3e-3 2.75-0.0064 4.13-0.0102 3.72-0.0088 7.45-0.0112 11.2-0.0118 2.33-7.12e-4 4.65-0.00285 6.98-0.0055 8.11-0.00923 16.2-0.0133 24.3-0.0125 7.57 6.02e-4 15.1-0.00999 22.7-0.0257 6.5-0.0131 13-0.0184 19.5-0.0178 3.88 2.55e-4 7.76-0.00262 11.6-0.0132 3.64-0.00965 7.29-0.00978 10.9-0.00248 1.98 0.00155 3.96-0.00682 5.94-0.0154 1.76 0.00629 1.76 0.00629 3.55 0.0127 1.02-5.45e-4 2.04-0.00109 3.1-0.00165 2.41 0.249 2.41 0.249 4.41 2.25 0.247 1.9 0.247 1.9 0.243 4.25 0.00308 0.878 0.00615 1.76 0.00932 2.66-0.0108 1.42-0.0108 1.42-0.0218 2.88-4.58e-4 0.971-9.16e-4 1.94-0.00139 2.94-0.00302 2.06-0.0109 4.11-0.0233 6.17-0.0183 3.16-0.0205 6.32-0.0203 9.47-0.00492 1.99-0.0107 3.99-0.0176 5.98-0.00111 0.951-0.00223 1.9-0.00337 2.88-0.00638 0.874-0.0128 1.75-0.0193 2.65-0.00381 0.773-0.00762 1.55-0.0116 2.34-0.134 1.78-0.134 1.78-1.13 2.78-1.41 0.117-2.82 0.167-4.23 0.189-0.898 0.0167-1.8 0.0334-2.72 0.0507-1.46 0.0204-1.46 0.0204-2.96 0.0411-0.995 0.0184-1.99 0.0368-3.02 0.0558-4.28 0.079-8.55 0.147-12.8 0.215-3.11 0.0516-6.23 0.109-9.34 0.167-1.46 0.0204-1.46 0.0204-2.96 0.0411-0.898 0.0167-1.8 0.0334-2.72 0.0507-1.19 0.0188-1.19 0.0188-2.41 0.038-1.84-0.0444-1.84-0.0444-2.82 1.15-0.105 1.38-0.142 2.76-0.151 4.14-0.00834 0.892-0.0167 1.78-0.0253 2.7-0.00418 0.986-0.00837 1.97-0.0127 2.99-0.00829 1.03-0.0166 2.06-0.0251 3.13-0.0174 2.25-0.0326 4.5-0.0458 6.75-0.0209 3.55-0.048 7.11-0.0767 10.7-0.0598 7.54-0.112 15.1-0.163 22.6-0.0591 8.74-0.121 17.5-0.192 26.2-0.0267 3.51-0.0474 7.03-0.068 10.5-0.0166 2.14-0.0335 4.28-0.0507 6.42-0.00418 0.986-0.00837 1.97-0.0127 2.99-0.00834 0.892-0.0167 1.78-0.0253 2.7-0.00515 0.779-0.0103 1.56-0.0156 2.36-0.136 1.78-0.136 1.78-1.14 2.78-1.49 0.104-2.99 0.139-4.49 0.145-0.954 0.00638-1.91 0.0128-2.89 0.0193-1.56 0.00167-1.56 0.00167-3.15 0.00337-1.06 0.00333-2.12 0.00666-3.21 0.0101-2.25 0.00507-4.49 0.00741-6.74 0.00725-3.45 0.00219-6.89 0.0203-10.3 0.0393-2.18 0.00293-4.35 0.00492-6.53 0.00586-1.04 0.00719-2.07 0.0144-3.14 0.0218-0.958-0.00308-1.92-0.00615-2.9-0.00932-0.845 0.00143-1.69 0.00285-2.56 0.00432-2.06-0.247-2.06-0.247-4.06-2.25-0.262-1.9-0.262-1.9-0.278-4.26-0.0112-0.895-0.0223-1.79-0.0338-2.71-0.00216-0.984-0.00432-1.97-0.00655-2.98-0.01-1.03-0.0201-2.07-0.0304-3.13-0.031-3.43-0.0479-6.86-0.0648-10.3-0.0187-2.37-0.0383-4.75-0.0587-7.12-0.0515-6.26-0.091-12.5-0.128-18.8-0.04-6.38-0.0911-12.8-0.141-19.1-0.0969-12.5-0.182-25.1-0.258-37.6-0.609-0.00587-1.22-0.0117-1.85-0.0178-6.33-0.0638-12.7-0.148-19-0.245-2.36-0.0333-4.73-0.0613-7.09-0.084-3.39-0.0334-6.78-0.0857-10.2-0.142-1.06-0.00639-2.12-0.0128-3.22-0.0194-0.981-0.0198-1.96-0.0396-2.97-0.06-0.866-0.0111-1.73-0.0222-2.62-0.0336-1.04-0.197-1.04-0.197-2.1-0.399-2.56-3.84-2.29-6.98-2.27-11.4-0.00191-0.827-0.00383-1.65-0.0058-2.51-0.00136-1.75 0.00233-3.5 0.0107-5.25 0.0107-2.67 1.15e-4 -5.34-0.0127-8.01 0.00132-1.7 0.00389-3.4 0.00781-5.11-0.00405-0.796-0.0081-1.59-0.0123-2.41 0.0354-4.21 0.344-7.44 2.28-11.3 6.85-1.27 13.7-1.15 20.6-1.15zm-21.6 6.15 1 2z" fill="#FBFCFE"/>
<path transform="translate(1235,227)" d="m0 0h1v16h-1v-16z" fill="#000405"/>
<path transform="translate(147,131)" d="m0 0h1v8h-1v-8z" fill="#FCFDFF"/>
<path transform="translate(1087,161)" d="m0 0 2 1z" fill="#FCFDFF"/>
</svg>
